<svg width="325" height="33" viewBox="0 0 325 33" fill="none" xmlns="http://www.w3.org/2000/svg">
<rect x="152" y="27" width="6" height="6" fill="#367242" fill-opacity="0.5"/>
<rect x="224" y="27" width="6" height="6" fill="#367242" fill-opacity="0.5"/>
<rect x="188" y="27" width="6" height="6" fill="#367242" fill-opacity="0.5"/>
<rect x="260" y="27" width="6" height="6" fill="#367242" fill-opacity="0.5"/>
<rect x="170" y="27" width="6" height="6" fill="#367242" fill-opacity="0.5"/>
<rect x="242" y="27" width="6" height="6" fill="#367242" fill-opacity="0.5"/>
<rect x="206" y="27" width="6" height="6" fill="#367242" fill-opacity="0.5"/>
<rect x="278" y="27" width="6" height="6" fill="#367242" fill-opacity="0.5"/>
<rect x="296" y="27" width="6" height="6" fill="#367242" fill-opacity="0.5"/>
<rect x="161" y="27" width="6" height="6" fill="#367242" fill-opacity="0.5"/>
<rect x="233" y="27" width="6" height="6" fill="#367242" fill-opacity="0.5"/>
<rect x="197" y="27" width="6" height="6" fill="#367242" fill-opacity="0.5"/>
<rect x="269" y="27" width="6" height="6" fill="#367242" fill-opacity="0.5"/>
<rect x="179" y="27" width="6" height="6" fill="#367242" fill-opacity="0.5"/>
<rect x="251" y="27" width="6" height="6" fill="#367242" fill-opacity="0.5"/>
<rect x="215" y="27" width="6" height="6" fill="#367242" fill-opacity="0.5"/>
<rect x="287" y="27" width="6" height="6" fill="#367242" fill-opacity="0.5"/>
<rect x="305" y="27" width="6" height="6" fill="#367242" fill-opacity="0.5"/>
<rect x="314" y="27" width="6" height="6" fill="#367242" fill-opacity="0.5"/>
<rect x="323" y="27" width="6" height="6" fill="#367242" fill-opacity="0.5"/>
<rect x="-1" y="27" width="6" height="6" fill="#367242" fill-opacity="0.5"/>
<rect x="8" y="27" width="6" height="6" fill="#367242" fill-opacity="0.5"/>
<rect x="80" y="27" width="6" height="6" fill="#367242" fill-opacity="0.5"/>
<rect x="44" y="27" width="6" height="6" fill="#367242" fill-opacity="0.5"/>
<rect x="116" y="27" width="6" height="6" fill="#367242" fill-opacity="0.5"/>
<rect x="26" y="27" width="6" height="6" fill="#367242" fill-opacity="0.5"/>
<rect x="98" y="27" width="6" height="6" fill="#367242" fill-opacity="0.5"/>
<rect x="62" y="27" width="6" height="6" fill="#367242" fill-opacity="0.5"/>
<rect x="134" y="27" width="6" height="6" fill="#367242" fill-opacity="0.5"/>
<rect x="17" y="27" width="6" height="6" fill="#367242" fill-opacity="0.5"/>
<rect x="89" y="27" width="6" height="6" fill="#367242" fill-opacity="0.5"/>
<rect x="53" y="27" width="6" height="6" fill="#367242" fill-opacity="0.5"/>
<rect x="125" y="27" width="6" height="6" fill="#367242" fill-opacity="0.5"/>
<rect x="35" y="27" width="6" height="6" fill="#367242" fill-opacity="0.5"/>
<rect x="107" y="27" width="6" height="6" fill="#367242" fill-opacity="0.5"/>
<rect x="71" y="27" width="6" height="6" fill="#367242" fill-opacity="0.5"/>
<rect x="143" y="27" width="6" height="6" fill="#367242" fill-opacity="0.5"/>
<rect x="152" y="18" width="6" height="6" fill="#367242" fill-opacity="0.5"/>
<rect x="224" y="18" width="6" height="6" fill="#367242" fill-opacity="0.5"/>
<rect x="188" y="18" width="6" height="6" fill="#367242" fill-opacity="0.5"/>
<rect x="260" y="18" width="6" height="6" fill="#367242" fill-opacity="0.5"/>
<rect x="170" y="18" width="6" height="6" fill="#367242" fill-opacity="0.5"/>
<rect x="242" y="18" width="6" height="6" fill="#367242" fill-opacity="0.5"/>
<rect x="206" y="18" width="6" height="6" fill="#367242" fill-opacity="0.5"/>
<rect x="278" y="18" width="6" height="6" fill="#367242" fill-opacity="0.5"/>
<rect x="296" y="18" width="6" height="6" fill="#367242" fill-opacity="0.5"/>
<rect x="161" y="18" width="6" height="6" fill="#367242" fill-opacity="0.5"/>
<rect x="233" y="18" width="6" height="6" fill="#367242" fill-opacity="0.5"/>
<rect x="197" y="18" width="6" height="6" fill="#367242" fill-opacity="0.5"/>
<rect x="269" y="18" width="6" height="6" fill="#367242" fill-opacity="0.5"/>
<rect x="179" y="18" width="6" height="6" fill="#367242" fill-opacity="0.5"/>
<rect x="251" y="18" width="6" height="6" fill="#367242" fill-opacity="0.5"/>
<rect x="215" y="18" width="6" height="6" fill="#367242" fill-opacity="0.5"/>
<rect x="305" y="18" width="6" height="6" fill="#367242" fill-opacity="0.5"/>
<rect x="314" y="18" width="6" height="6" fill="#367242" fill-opacity="0.5"/>
<rect x="323" y="18" width="6" height="6" fill="#367242" fill-opacity="0.5"/>
<rect x="-1" y="18" width="6" height="6" fill="#367242" fill-opacity="0.5"/>
<rect x="8" y="18" width="6" height="6" fill="#367242" fill-opacity="0.5"/>
<rect x="80" y="18" width="6" height="6" fill="#367242" fill-opacity="0.5"/>
<rect x="44" y="18" width="6" height="6" fill="#367242" fill-opacity="0.5"/>
<rect x="116" y="18" width="6" height="6" fill="#367242" fill-opacity="0.5"/>
<rect x="26" y="18" width="6" height="6" fill="#367242" fill-opacity="0.5"/>
<rect x="98" y="18" width="6" height="6" fill="#367242" fill-opacity="0.5"/>
<rect x="62" y="18" width="6" height="6" fill="#367242" fill-opacity="0.5"/>
<rect x="134" y="18" width="6" height="6" fill="#367242" fill-opacity="0.5"/>
<rect x="17" y="18" width="6" height="6" fill="#367242" fill-opacity="0.5"/>
<rect x="89" y="18" width="6" height="6" fill="#367242" fill-opacity="0.5"/>
<rect x="53" y="18" width="6" height="6" fill="#367242" fill-opacity="0.5"/>
<rect x="125" y="18" width="6" height="6" fill="#367242" fill-opacity="0.5"/>
<rect x="35" y="18" width="6" height="6" fill="#367242" fill-opacity="0.5"/>
<rect x="107" y="18" width="6" height="6" fill="#367242" fill-opacity="0.5"/>
<rect x="71" y="18" width="6" height="6" fill="#367242" fill-opacity="0.5"/>
<rect x="143" y="18" width="6" height="6" fill="#367242" fill-opacity="0.5"/>
<rect x="152" y="9" width="6" height="6" fill="#367242" fill-opacity="0.5"/>
<rect x="224" y="9" width="6" height="6" fill="#367242" fill-opacity="0.5"/>
<rect x="170" y="9" width="6" height="6" fill="#367242" fill-opacity="0.5"/>
<rect x="206" y="9" width="6" height="6" fill="#367242" fill-opacity="0.5"/>
<rect x="278" y="9" width="6" height="6" fill="#367242" fill-opacity="0.5"/>
<rect x="296" y="9" width="6" height="6" fill="#367242" fill-opacity="0.5"/>
<rect x="233" y="9" width="6" height="6" fill="#367242" fill-opacity="0.5"/>
<rect x="179" y="9" width="6" height="6" fill="#367242" fill-opacity="0.5"/>
<rect x="287" y="9" width="6" height="6" fill="#367242" fill-opacity="0.5"/>
<rect x="305" y="9" width="6" height="6" fill="#367242" fill-opacity="0.5"/>
<rect x="314" y="9" width="6" height="6" fill="#367242" fill-opacity="0.5"/>
<rect x="323" y="9" width="6" height="6" fill="#367242" fill-opacity="0.5"/>
<rect x="-1" y="9" width="6" height="6" fill="#367242" fill-opacity="0.5"/>
<rect x="80" y="9" width="6" height="6" fill="#367242" fill-opacity="0.5"/>
<rect x="98" y="9" width="6" height="6" fill="#367242" fill-opacity="0.5"/>
<rect x="134" y="9" width="6" height="6" fill="#367242" fill-opacity="0.5"/>
<rect x="224" width="6" height="6" fill="#367242" fill-opacity="0.5"/>
<rect x="188" width="6" height="6" fill="#367242" fill-opacity="0.5"/>
<rect x="296" width="6" height="6" fill="#367242" fill-opacity="0.5"/>
<rect x="314" width="6" height="6" fill="#367242" fill-opacity="0.5"/>
<rect x="-1" width="6" height="6" fill="#367242" fill-opacity="0.5"/>
</svg>
