<svg width="116" height="118" viewBox="0 0 116 118" fill="none" xmlns="http://www.w3.org/2000/svg">
<rect x="0.5" y="0.5" width="115" height="117" rx="4.5" stroke="black"/>
<g clip-path="url(#clip0)">
<path d="M1 2V116H114V2H1Z" fill="white"/>
<path d="M8.0625 9.12488V13.115H12.0175V9.12488H8.0625Z" fill="#0E0F0E"/>
<path d="M12.0176 9.12488V13.115H15.9726V9.12488H12.0176Z" fill="#0E0F0E"/>
<path d="M15.9727 9.12488V13.115H19.9276V9.12488H15.9727Z" fill="#0E0F0E"/>
<path d="M19.9272 9.12488V13.115H23.8822V9.12488H19.9272" fill="#0E0F0E"/>
<path d="M23.8823 9.12488V13.115H27.8373V9.12488H23.8823Z" fill="#0E0F0E"/>
<path d="M27.8374 9.12488V13.115H31.7924V9.12488H27.8374Z" fill="#0E0F0E"/>
<path d="M31.7925 9.12488V13.115H35.7475V9.12488H31.7925Z" fill="#0E0F0E"/>
<path d="M39.7026 9.12488V13.115H43.6574V9.12488H39.7026Z" fill="#0E0F0E"/>
<path d="M43.6572 9.12488V13.115H47.6122V9.12488H43.6572Z" fill="#0E0F0E"/>
<path d="M47.6123 9.12488V13.115H51.5673V9.12488H47.6123Z" fill="#0E0F0E"/>
<path d="M51.5674 9.12488V13.115H55.5224V9.12488H51.5674Z" fill="#0E0F0E"/>
<path d="M79.2524 9.12488V13.115H83.2074V9.12488H79.2524Z" fill="#0E0F0E"/>
<path d="M83.2075 9.12488V13.115H87.1622V9.12488H83.2075Z" fill="#0E0F0E"/>
<path d="M87.1621 9.12488V13.115H91.1173V9.12488H87.1621Z" fill="#0E0F0E"/>
<path d="M91.1172 9.12488V13.115H95.0722V9.12488H91.1172Z" fill="#0E0F0E"/>
<path d="M95.0723 9.12488V13.115H99.0272V9.12488H95.0723Z" fill="#0E0F0E"/>
<path d="M99.0273 9.12488V13.115H102.982V9.12488H99.0273Z" fill="#0E0F0E"/>
<path d="M102.982 9.12488V13.115H106.937V9.12488H102.982Z" fill="#0E0F0E"/>
<path d="M8.0625 13.115V17.1048H12.0175V13.115H8.0625Z" fill="#0E0F0E"/>
<path d="M31.7925 13.115V17.1048H35.7475V13.115H31.7925Z" fill="#0E0F0E"/>
<path d="M51.5674 13.115V17.1048H55.5224V13.115H51.5674Z" fill="#0E0F0E"/>
<path d="M55.5225 13.115V17.1048H59.4777V13.115H55.5225Z" fill="#0E0F0E"/>
<path d="M59.4775 13.115V17.1048H63.4325V13.115H59.4775Z" fill="#0E0F0E"/>
<path d="M63.4326 13.115V17.1048H67.3874V13.115H63.4326Z" fill="#0E0F0E"/>
<path d="M71.3423 13.115V17.1048H75.2975V13.115H71.3423Z" fill="#0E0F0E"/>
<path d="M79.2524 13.115V17.1048H83.2074V13.115H79.2524Z" fill="#0E0F0E"/>
<path d="M102.982 13.115V17.1048H106.937V13.115H102.982Z" fill="#0E0F0E"/>
<path d="M8.0625 17.1048V21.0949H12.0175V17.1048H8.0625Z" fill="#0E0F0E"/>
<path d="M15.9727 17.1048V21.0949H19.9276V17.1048H15.9727Z" fill="#0E0F0E"/>
<path d="M19.9272 17.1048V21.0949H23.8822V17.1048H19.9272" fill="#0E0F0E"/>
<path d="M23.8823 17.1048V21.0949H27.8373V17.1048H23.8823Z" fill="#0E0F0E"/>
<path d="M31.7925 17.1048V21.0949H35.7475V17.1048H31.7925Z" fill="#0E0F0E"/>
<path d="M43.6572 17.1048V21.0949H47.6122V17.1048H43.6572Z" fill="#0E0F0E"/>
<path d="M51.5674 17.1048V21.0949H55.5224V17.1048H51.5674Z" fill="#0E0F0E"/>
<path d="M59.4775 17.1048V21.0949H63.4325V17.1048H59.4775Z" fill="#0E0F0E"/>
<path d="M67.3872 17.1048V21.0949H71.3422V17.1048H67.3872Z" fill="#0E0F0E"/>
<path d="M71.3423 17.1048V21.0949H75.2975V17.1048H71.3423Z" fill="#0E0F0E"/>
<path d="M79.2524 17.1048V21.0949H83.2074V17.1048H79.2524Z" fill="#0E0F0E"/>
<path d="M87.1621 17.1048V21.0949H91.1173V17.1048H87.1621Z" fill="#0E0F0E"/>
<path d="M91.1172 17.1048V21.0949H95.0722V17.1048H91.1172Z" fill="#0E0F0E"/>
<path d="M95.0723 17.1048V21.0949H99.0272V17.1048H95.0723Z" fill="#0E0F0E"/>
<path d="M102.982 17.1048V21.0949H106.937V17.1048H102.982Z" fill="#0E0F0E"/>
<path d="M8.0625 21.0949V25.085H12.0175V21.0949H8.0625Z" fill="#0E0F0E"/>
<path d="M15.9727 21.0949V25.085H19.9276V21.0949H15.9727Z" fill="#0E0F0E"/>
<path d="M19.9272 21.0949V25.085H23.8822V21.0949H19.9272" fill="#0E0F0E"/>
<path d="M23.8823 21.0949V25.085H27.8373V21.0949H23.8823Z" fill="#0E0F0E"/>
<path d="M31.7925 21.0949V25.085H35.7475V21.0949H31.7925Z" fill="#0E0F0E"/>
<path d="M47.6123 21.0949V25.085H51.5673V21.0949H47.6123Z" fill="#0E0F0E"/>
<path d="M51.5674 21.0949V25.085H55.5224V21.0949H51.5674Z" fill="#0E0F0E"/>
<path d="M59.4775 21.0949V25.085H63.4325V21.0949H59.4775Z" fill="#0E0F0E"/>
<path d="M67.3872 21.0949V25.085H71.3422V21.0949H67.3872Z" fill="#0E0F0E"/>
<path d="M71.3423 21.0949V25.085H75.2975V21.0949H71.3423Z" fill="#0E0F0E"/>
<path d="M79.2524 21.0949V25.085H83.2074V21.0949H79.2524Z" fill="#0E0F0E"/>
<path d="M87.1621 21.0949V25.085H91.1173V21.0949H87.1621Z" fill="#0E0F0E"/>
<path d="M91.1172 21.0949V25.085H95.0722V21.0949H91.1172Z" fill="#0E0F0E"/>
<path d="M95.0723 21.0949V25.085H99.0272V21.0949H95.0723Z" fill="#0E0F0E"/>
<path d="M102.982 21.0949V25.085H106.937V21.0949H102.982Z" fill="#0E0F0E"/>
<path d="M8.0625 25.085V29.0748H12.0175V25.085H8.0625Z" fill="#0E0F0E"/>
<path d="M15.9727 25.085V29.0748H19.9276V25.085H15.9727Z" fill="#0E0F0E"/>
<path d="M19.9272 25.085V29.0748H23.8822V25.085H19.9272" fill="#0E0F0E"/>
<path d="M23.8823 25.085V29.0748H27.8373V25.085H23.8823Z" fill="#0E0F0E"/>
<path d="M31.7925 25.085V29.0748H35.7475V25.085H31.7925Z" fill="#0E0F0E"/>
<path d="M47.6123 25.085V29.0748H51.5673V25.085H47.6123Z" fill="#0E0F0E"/>
<path d="M51.5674 25.085V29.0748H55.5224V25.085H51.5674Z" fill="#0E0F0E"/>
<path d="M55.5225 25.085V29.0748H59.4777V25.085H55.5225Z" fill="#0E0F0E"/>
<path d="M63.4326 25.085V29.0748H67.3874V25.085H63.4326Z" fill="#0E0F0E"/>
<path d="M71.3423 25.085V29.0748H75.2975V25.085H71.3423Z" fill="#0E0F0E"/>
<path d="M79.2524 25.085V29.0748H83.2074V25.085H79.2524Z" fill="#0E0F0E"/>
<path d="M87.1621 25.085V29.0748H91.1173V25.085H87.1621Z" fill="#0E0F0E"/>
<path d="M91.1172 25.085V29.0748H95.0722V25.085H91.1172Z" fill="#0E0F0E"/>
<path d="M95.0723 25.085V29.0748H99.0272V25.085H95.0723Z" fill="#0E0F0E"/>
<path d="M102.982 25.085V29.0748H106.937V25.085H102.982Z" fill="#0E0F0E"/>
<path d="M8.0625 29.0748V33.0649H12.0175V29.0748H8.0625Z" fill="#0E0F0E"/>
<path d="M31.7925 29.0748V33.0649H35.7475V29.0748H31.7925Z" fill="#0E0F0E"/>
<path d="M43.6572 29.0748V33.0649H47.6122V29.0748H43.6572Z" fill="#0E0F0E"/>
<path d="M51.5674 29.0748V33.0649H55.5224V29.0748H51.5674Z" fill="#0E0F0E"/>
<path d="M63.4326 29.0748V33.0649H67.3874V29.0748H63.4326Z" fill="#0E0F0E"/>
<path d="M71.3423 29.0748V33.0649H75.2975V29.0748H71.3423Z" fill="#0E0F0E"/>
<path d="M79.2524 29.0748V33.0649H83.2074V29.0748H79.2524Z" fill="#0E0F0E"/>
<path d="M102.982 29.0748V33.0649H106.937V29.0748H102.982Z" fill="#0E0F0E"/>
<path d="M8.0625 33.0649V37.055H12.0175V33.0649H8.0625Z" fill="#0E0F0E"/>
<path d="M12.0176 33.0649V37.055H15.9726V33.0649H12.0176Z" fill="#0E0F0E"/>
<path d="M15.9727 33.0649V37.055H19.9276V33.0649H15.9727Z" fill="#0E0F0E"/>
<path d="M19.9272 33.0649V37.055H23.8822V33.0649H19.9272" fill="#0E0F0E"/>
<path d="M23.8823 33.0649V37.055H27.8373V33.0649H23.8823Z" fill="#0E0F0E"/>
<path d="M27.8374 33.0649V37.055H31.7924V33.0649H27.8374Z" fill="#0E0F0E"/>
<path d="M31.7925 33.0649V37.055H35.7475V33.0649H31.7925Z" fill="#0E0F0E"/>
<path d="M39.7026 33.0649V37.055H43.6574V33.0649H39.7026Z" fill="#0E0F0E"/>
<path d="M47.6123 33.0649V37.055H51.5673V33.0649H47.6123Z" fill="#0E0F0E"/>
<path d="M55.5225 33.0649V37.055H59.4777V33.0649H55.5225Z" fill="#0E0F0E"/>
<path d="M63.4326 33.0649V37.055H67.3874V33.0649H63.4326Z" fill="#0E0F0E"/>
<path d="M71.3423 33.0649V37.055H75.2975V33.0649H71.3423Z" fill="#0E0F0E"/>
<path d="M79.2524 33.0649V37.055H83.2074V33.0649H79.2524Z" fill="#0E0F0E"/>
<path d="M83.2075 33.0649V37.055H87.1622V33.0649H83.2075Z" fill="#0E0F0E"/>
<path d="M87.1621 33.0649V37.055H91.1173V33.0649H87.1621Z" fill="#0E0F0E"/>
<path d="M91.1172 33.0649V37.055H95.0722V33.0649H91.1172Z" fill="#0E0F0E"/>
<path d="M95.0723 33.0649V37.055H99.0272V33.0649H95.0723Z" fill="#0E0F0E"/>
<path d="M99.0273 33.0649V37.055H102.982V33.0649H99.0273Z" fill="#0E0F0E"/>
<path d="M102.982 33.0649V37.055H106.937V33.0649H102.982Z" fill="#0E0F0E"/>
<path d="M39.7026 37.055V41.0449H43.6574V37.055H39.7026Z" fill="#0E0F0E"/>
<path d="M43.6572 37.055V41.0449H47.6122V37.055H43.6572Z" fill="#0E0F0E"/>
<path d="M55.5225 37.055V41.0449H59.4777V37.055H55.5225Z" fill="#0E0F0E"/>
<path d="M59.4775 37.055V41.0449H63.4325V37.055H59.4775Z" fill="#0E0F0E"/>
<path d="M8.0625 41.0448V45.0349H12.0175V41.0448H8.0625Z" fill="#0E0F0E"/>
<path d="M12.0176 41.0448V45.0349H15.9726V41.0448H12.0176Z" fill="#0E0F0E"/>
<path d="M19.9272 41.0448V45.0349H23.8822V41.0448H19.9272" fill="#0E0F0E"/>
<path d="M23.8823 41.0448V45.0349H27.8373V41.0448H23.8823Z" fill="#0E0F0E"/>
<path d="M31.7925 41.0448V45.0349H35.7475V41.0448H31.7925Z" fill="#0E0F0E"/>
<path d="M43.6572 41.0448V45.0349H47.6122V41.0448H43.6572Z" fill="#0E0F0E"/>
<path d="M55.5225 41.0448V45.0349H59.4777V41.0448H55.5225Z" fill="#0E0F0E"/>
<path d="M63.4326 41.0448V45.0349H67.3874V41.0448H63.4326Z" fill="#0E0F0E"/>
<path d="M67.3872 41.0448V45.0349H71.3422V41.0448H67.3872Z" fill="#0E0F0E"/>
<path d="M79.2524 41.0448V45.0349H83.2074V41.0448H79.2524Z" fill="#0E0F0E"/>
<path d="M102.982 41.0448V45.0349H106.937V41.0448H102.982Z" fill="#0E0F0E"/>
<path d="M8.0625 45.0349V49.025H12.0175V45.0349H8.0625Z" fill="#0E0F0E"/>
<path d="M12.0176 45.0349V49.025H15.9726V45.0349H12.0176Z" fill="#0E0F0E"/>
<path d="M15.9727 45.0349V49.025H19.9276V45.0349H15.9727Z" fill="#0E0F0E"/>
<path d="M23.8823 45.0349V49.025H27.8373V45.0349H23.8823Z" fill="#0E0F0E"/>
<path d="M27.8374 45.0349V49.025H31.7924V45.0349H27.8374Z" fill="#0E0F0E"/>
<path d="M35.7476 45.0349V49.025H39.7028V45.0349H35.7476Z" fill="#0E0F0E"/>
<path d="M47.6123 45.0349V49.025H51.5673V45.0349H47.6123Z" fill="#0E0F0E"/>
<path d="M59.4775 45.0349V49.025H63.4325V45.0349H59.4775Z" fill="#0E0F0E"/>
<path d="M63.4326 45.0349V49.025H67.3874V45.0349H63.4326Z" fill="#0E0F0E"/>
<path d="M67.3872 45.0349V49.025H71.3422V45.0349H67.3872Z" fill="#0E0F0E"/>
<path d="M75.2974 45.0349V49.025H79.2524V45.0349H75.2974Z" fill="#0E0F0E"/>
<path d="M83.2075 45.0349V49.025H87.1622V45.0349H83.2075Z" fill="#0E0F0E"/>
<path d="M87.1621 45.0349V49.025H91.1173V45.0349H87.1621Z" fill="#0E0F0E"/>
<path d="M91.1172 45.0349V49.025H95.0722V45.0349H91.1172Z" fill="#0E0F0E"/>
<path d="M95.0723 45.0349V49.025H99.0272V45.0349H95.0723Z" fill="#0E0F0E"/>
<path d="M99.0273 45.0349V49.025H102.982V45.0349H99.0273Z" fill="#0E0F0E"/>
<path d="M8.0625 49.025V53.0149H12.0175V49.025H8.0625Z" fill="#0E0F0E"/>
<path d="M15.9727 49.025V53.0149H19.9276V49.025H15.9727Z" fill="#0E0F0E"/>
<path d="M23.8823 49.025V53.0149H27.8373V49.025H23.8823Z" fill="#0E0F0E"/>
<path d="M31.7925 49.025V53.0149H35.7475V49.025H31.7925Z" fill="#0E0F0E"/>
<path d="M35.7476 49.025V53.0149H39.7028V49.025H35.7476Z" fill="#0E0F0E"/>
<path d="M39.7026 49.025V53.0149H43.6574V49.025H39.7026Z" fill="#0E0F0E"/>
<path d="M43.6572 49.025V53.0149H47.6122V49.025H43.6572Z" fill="#0E0F0E"/>
<path d="M55.5225 49.025V53.0149H59.4777V49.025H55.5225Z" fill="#0E0F0E"/>
<path d="M67.3872 49.025V53.0149H71.3422V49.025H67.3872Z" fill="#0E0F0E"/>
<path d="M71.3423 49.025V53.0149H75.2975V49.025H71.3423Z" fill="#0E0F0E"/>
<path d="M79.2524 49.025V53.0149H83.2074V49.025H79.2524Z" fill="#0E0F0E"/>
<path d="M83.2075 49.025V53.0149H87.1622V49.025H83.2075Z" fill="#0E0F0E"/>
<path d="M91.1172 49.025V53.0149H95.0722V49.025H91.1172Z" fill="#0E0F0E"/>
<path d="M102.982 49.025V53.0149H106.937V49.025H102.982Z" fill="#0E0F0E"/>
<path d="M8.0625 53.0149V57.005H12.0175V53.0149H8.0625Z" fill="#0E0F0E"/>
<path d="M12.0176 53.0149V57.005H15.9726V53.0149H12.0176Z" fill="#0E0F0E"/>
<path d="M35.7476 53.0149V57.005H39.7028V53.0149H35.7476Z" fill="#0E0F0E"/>
<path d="M39.7026 53.0149V57.005H43.6574V53.0149H39.7026Z" fill="#0E0F0E"/>
<path d="M67.3872 53.0149V57.005H71.3422V53.0149H67.3872Z" fill="#0E0F0E"/>
<path d="M83.2075 53.0149V57.005H87.1622V53.0149H83.2075Z" fill="#0E0F0E"/>
<path d="M91.1172 53.0149V57.005H95.0722V53.0149H91.1172Z" fill="#0E0F0E"/>
<path d="M95.0723 53.0149V57.005H99.0272V53.0149H95.0723Z" fill="#0E0F0E"/>
<path d="M99.0273 53.0149V57.005H102.982V53.0149H99.0273Z" fill="#0E0F0E"/>
<path d="M102.982 53.0149V57.005H106.937V53.0149H102.982Z" fill="#0E0F0E"/>
<path d="M15.9727 57.005V60.9948H19.9276V57.005H15.9727Z" fill="#0E0F0E"/>
<path d="M19.9272 57.005V60.9948H23.8822V57.005H19.9272" fill="#0E0F0E"/>
<path d="M31.7925 57.005V60.9948H35.7475V57.005H31.7925Z" fill="#0E0F0E"/>
<path d="M39.7026 57.005V60.9948H43.6574V57.005H39.7026Z" fill="#0E0F0E"/>
<path d="M43.6572 57.005V60.9948H47.6122V57.005H43.6572Z" fill="#0E0F0E"/>
<path d="M47.6123 57.005V60.9948H51.5673V57.005H47.6123Z" fill="#0E0F0E"/>
<path d="M63.4326 57.005V60.9948H67.3874V57.005H63.4326Z" fill="#0E0F0E"/>
<path d="M67.3872 57.005V60.9948H71.3422V57.005H67.3872Z" fill="#0E0F0E"/>
<path d="M79.2524 57.005V60.9948H83.2074V57.005H79.2524Z" fill="#0E0F0E"/>
<path d="M102.982 57.005V60.9948H106.937V57.005H102.982Z" fill="#0E0F0E"/>
<path d="M8.0625 60.9948V64.9849H12.0175V60.9948H8.0625" fill="#0E0F0E"/>
<path d="M15.9727 60.9948V64.9849H19.9276V60.9948H15.9727" fill="#0E0F0E"/>
<path d="M19.9272 60.9948V64.9849H23.8822V60.9948H19.9272" fill="#0E0F0E"/>
<path d="M27.8374 60.9948V64.9849H31.7924V60.9948H27.8374" fill="#0E0F0E"/>
<path d="M35.7476 60.9948V64.9849H39.7028V60.9948H35.7476" fill="#0E0F0E"/>
<path d="M47.6123 60.9948V64.9849H51.5673V60.9948H47.6123" fill="#0E0F0E"/>
<path d="M55.5225 60.9948V64.9849H59.4777V60.9948H55.5225" fill="#0E0F0E"/>
<path d="M63.4326 60.9948V64.9849H67.3874V60.9948H63.4326" fill="#0E0F0E"/>
<path d="M67.3872 60.9948V64.9849H71.3422V60.9948H67.3872" fill="#0E0F0E"/>
<path d="M71.3423 60.9948V64.9849H75.2975V60.9948H71.3423" fill="#0E0F0E"/>
<path d="M75.2974 60.9948V64.9849H79.2524V60.9948H75.2974" fill="#0E0F0E"/>
<path d="M87.1621 60.9948V64.9849H91.1173V60.9948H87.1621" fill="#0E0F0E"/>
<path d="M99.0273 60.9948V64.9849H102.982V60.9948H99.0273" fill="#0E0F0E"/>
<path d="M8.0625 64.9849V68.975H12.0175V64.9849H8.0625Z" fill="#0E0F0E"/>
<path d="M12.0176 64.9849V68.975H15.9726V64.9849H12.0176Z" fill="#0E0F0E"/>
<path d="M19.9272 64.9849V68.975H23.8822V64.9849H19.9272" fill="#0E0F0E"/>
<path d="M23.8823 64.9849V68.975H27.8373V64.9849H23.8823Z" fill="#0E0F0E"/>
<path d="M27.8374 64.9849V68.975H31.7924V64.9849H27.8374Z" fill="#0E0F0E"/>
<path d="M31.7925 64.9849V68.975H35.7475V64.9849H31.7925Z" fill="#0E0F0E"/>
<path d="M35.7476 64.9849V68.975H39.7028V64.9849H35.7476Z" fill="#0E0F0E"/>
<path d="M43.6572 64.9849V68.975H47.6122V64.9849H43.6572Z" fill="#0E0F0E"/>
<path d="M63.4326 64.9849V68.975H67.3874V64.9849H63.4326Z" fill="#0E0F0E"/>
<path d="M67.3872 64.9849V68.975H71.3422V64.9849H67.3872Z" fill="#0E0F0E"/>
<path d="M75.2974 64.9849V68.975H79.2524V64.9849H75.2974Z" fill="#0E0F0E"/>
<path d="M79.2524 64.9849V68.975H83.2074V64.9849H79.2524Z" fill="#0E0F0E"/>
<path d="M87.1621 64.9849V68.975H91.1173V64.9849H87.1621Z" fill="#0E0F0E"/>
<path d="M91.1172 64.9849V68.975H95.0722V64.9849H91.1172Z" fill="#0E0F0E"/>
<path d="M95.0723 64.9849V68.975H99.0272V64.9849H95.0723Z" fill="#0E0F0E"/>
<path d="M99.0273 64.9849V68.975H102.982V64.9849H99.0273Z" fill="#0E0F0E"/>
<path d="M102.982 64.9849V68.975H106.937V64.9849H102.982Z" fill="#0E0F0E"/>
<path d="M8.0625 68.975V72.9648H12.0175V68.975H8.0625Z" fill="#0E0F0E"/>
<path d="M27.8374 68.975V72.9648H31.7924V68.975H27.8374Z" fill="#0E0F0E"/>
<path d="M35.7476 68.975V72.9648H39.7028V68.975H35.7476Z" fill="#0E0F0E"/>
<path d="M43.6572 68.975V72.9648H47.6122V68.975H43.6572Z" fill="#0E0F0E"/>
<path d="M55.5225 68.975V72.9648H59.4777V68.975H55.5225Z" fill="#0E0F0E"/>
<path d="M63.4326 68.975V72.9648H67.3874V68.975H63.4326Z" fill="#0E0F0E"/>
<path d="M71.3423 68.975V72.9648H75.2975V68.975H71.3423Z" fill="#0E0F0E"/>
<path d="M75.2974 68.975V72.9648H79.2524V68.975H75.2974Z" fill="#0E0F0E"/>
<path d="M83.2075 68.975V72.9648H87.1622V68.975H83.2075Z" fill="#0E0F0E"/>
<path d="M91.1172 68.975V72.9648H95.0722V68.975H91.1172Z" fill="#0E0F0E"/>
<path d="M95.0723 68.975V72.9648H99.0272V68.975H95.0723Z" fill="#0E0F0E"/>
<path d="M102.982 68.975V72.9648H106.937V68.975H102.982Z" fill="#0E0F0E"/>
<path d="M8.0625 72.9648V76.9549H12.0175V72.9648H8.0625Z" fill="#0E0F0E"/>
<path d="M15.9727 72.9648V76.9549H19.9276V72.9648H15.9727Z" fill="#0E0F0E"/>
<path d="M19.9272 72.9648V76.9549H23.8822V72.9648H19.9272" fill="#0E0F0E"/>
<path d="M23.8823 72.9648V76.9549H27.8373V72.9648H23.8823Z" fill="#0E0F0E"/>
<path d="M31.7925 72.9648V76.9549H35.7475V72.9648H31.7925Z" fill="#0E0F0E"/>
<path d="M35.7476 72.9648V76.9549H39.7028V72.9648H35.7476Z" fill="#0E0F0E"/>
<path d="M47.6123 72.9648V76.9549H51.5673V72.9648H47.6123Z" fill="#0E0F0E"/>
<path d="M51.5674 72.9648V76.9549H55.5224V72.9648H51.5674Z" fill="#0E0F0E"/>
<path d="M55.5225 72.9648V76.9549H59.4777V72.9648H55.5225Z" fill="#0E0F0E"/>
<path d="M59.4775 72.9648V76.9549H63.4325V72.9648H59.4775Z" fill="#0E0F0E"/>
<path d="M67.3872 72.9648V76.9549H71.3422V72.9648H67.3872Z" fill="#0E0F0E"/>
<path d="M71.3423 72.9648V76.9549H75.2975V72.9648H71.3423Z" fill="#0E0F0E"/>
<path d="M75.2974 72.9648V76.9549H79.2524V72.9648H75.2974Z" fill="#0E0F0E"/>
<path d="M79.2524 72.9648V76.9549H83.2074V72.9648H79.2524Z" fill="#0E0F0E"/>
<path d="M83.2075 72.9648V76.9549H87.1622V72.9648H83.2075Z" fill="#0E0F0E"/>
<path d="M87.1621 72.9648V76.9549H91.1173V72.9648H87.1621Z" fill="#0E0F0E"/>
<path d="M95.0723 72.9648V76.9549H99.0272V72.9648H95.0723Z" fill="#0E0F0E"/>
<path d="M99.0273 72.9648V76.9549H102.982V72.9648H99.0273Z" fill="#0E0F0E"/>
<path d="M39.7026 76.9549V80.945H43.6574V76.9549H39.7026Z" fill="#0E0F0E"/>
<path d="M43.6572 76.9549V80.945H47.6122V76.9549H43.6572Z" fill="#0E0F0E"/>
<path d="M51.5674 76.9549V80.945H55.5224V76.9549H51.5674Z" fill="#0E0F0E"/>
<path d="M71.3423 76.9549V80.945H75.2975V76.9549H71.3423Z" fill="#0E0F0E"/>
<path d="M87.1621 76.9549V80.945H91.1173V76.9549H87.1621Z" fill="#0E0F0E"/>
<path d="M95.0723 76.9549V80.945H99.0272V76.9549H95.0723Z" fill="#0E0F0E"/>
<path d="M99.0273 76.9549V80.945H102.982V76.9549H99.0273Z" fill="#0E0F0E"/>
<path d="M8.0625 80.945V84.9348H12.0175V80.945H8.0625Z" fill="#0E0F0E"/>
<path d="M12.0176 80.945V84.9348H15.9726V80.945H12.0176Z" fill="#0E0F0E"/>
<path d="M15.9727 80.945V84.9348H19.9276V80.945H15.9727Z" fill="#0E0F0E"/>
<path d="M19.9272 80.945V84.9348H23.8822V80.945H19.9272" fill="#0E0F0E"/>
<path d="M23.8823 80.945V84.9348H27.8373V80.945H23.8823Z" fill="#0E0F0E"/>
<path d="M27.8374 80.945V84.9348H31.7924V80.945H27.8374Z" fill="#0E0F0E"/>
<path d="M31.7925 80.945V84.9348H35.7475V80.945H31.7925Z" fill="#0E0F0E"/>
<path d="M47.6123 80.945V84.9348H51.5673V80.945H47.6123Z" fill="#0E0F0E"/>
<path d="M55.5225 80.945V84.9348H59.4777V80.945H55.5225Z" fill="#0E0F0E"/>
<path d="M63.4326 80.945V84.9348H67.3874V80.945H63.4326Z" fill="#0E0F0E"/>
<path d="M71.3423 80.945V84.9348H75.2975V80.945H71.3423Z" fill="#0E0F0E"/>
<path d="M79.2524 80.945V84.9348H83.2074V80.945H79.2524Z" fill="#0E0F0E"/>
<path d="M87.1621 80.945V84.9348H91.1173V80.945H87.1621Z" fill="#0E0F0E"/>
<path d="M102.982 80.945V84.9348H106.937V80.945H102.982Z" fill="#0E0F0E"/>
<path d="M8.0625 84.9348V88.9249H12.0175V84.9348H8.0625Z" fill="#0E0F0E"/>
<path d="M31.7925 84.9348V88.9249H35.7475V84.9348H31.7925Z" fill="#0E0F0E"/>
<path d="M51.5674 84.9348V88.9249H55.5224V84.9348H51.5674Z" fill="#0E0F0E"/>
<path d="M59.4775 84.9348V88.9249H63.4325V84.9348H59.4775Z" fill="#0E0F0E"/>
<path d="M67.3872 84.9348V88.9249H71.3422V84.9348H67.3872Z" fill="#0E0F0E"/>
<path d="M71.3423 84.9348V88.9249H75.2975V84.9348H71.3423Z" fill="#0E0F0E"/>
<path d="M87.1621 84.9348V88.9249H91.1173V84.9348H87.1621Z" fill="#0E0F0E"/>
<path d="M102.982 84.9348V88.9249H106.937V84.9348H102.982Z" fill="#0E0F0E"/>
<path d="M8.0625 88.9249V92.9148H12.0175V88.9249H8.0625Z" fill="#0E0F0E"/>
<path d="M15.9727 88.9249V92.9148H19.9276V88.9249H15.9727Z" fill="#0E0F0E"/>
<path d="M19.9272 88.9249V92.9148H23.8822V88.9249H19.9272" fill="#0E0F0E"/>
<path d="M23.8823 88.9249V92.9148H27.8373V88.9249H23.8823Z" fill="#0E0F0E"/>
<path d="M31.7925 88.9249V92.9148H35.7475V88.9249H31.7925Z" fill="#0E0F0E"/>
<path d="M39.7026 88.9249V92.9148H43.6574V88.9249H39.7026Z" fill="#0E0F0E"/>
<path d="M47.6123 88.9249V92.9148H51.5673V88.9249H47.6123Z" fill="#0E0F0E"/>
<path d="M51.5674 88.9249V92.9148H55.5224V88.9249H51.5674Z" fill="#0E0F0E"/>
<path d="M55.5225 88.9249V92.9148H59.4777V88.9249H55.5225Z" fill="#0E0F0E"/>
<path d="M63.4326 88.9249V92.9148H67.3874V88.9249H63.4326Z" fill="#0E0F0E"/>
<path d="M67.3872 88.9249V92.9148H71.3422V88.9249H67.3872Z" fill="#0E0F0E"/>
<path d="M71.3423 88.9249V92.9148H75.2975V88.9249H71.3423Z" fill="#0E0F0E"/>
<path d="M75.2974 88.9249V92.9148H79.2524V88.9249H75.2974Z" fill="#0E0F0E"/>
<path d="M79.2524 88.9249V92.9148H83.2074V88.9249H79.2524Z" fill="#0E0F0E"/>
<path d="M83.2075 88.9249V92.9148H87.1622V88.9249H83.2075Z" fill="#0E0F0E"/>
<path d="M87.1621 88.9249V92.9148H91.1173V88.9249H87.1621Z" fill="#0E0F0E"/>
<path d="M8.0625 92.9148V96.9049H12.0175V92.9148H8.0625Z" fill="#0E0F0E"/>
<path d="M15.9727 92.9148V96.9049H19.9276V92.9148H15.9727Z" fill="#0E0F0E"/>
<path d="M19.9272 92.9148V96.9049H23.8822V92.9148H19.9272" fill="#0E0F0E"/>
<path d="M23.8823 92.9148V96.9049H27.8373V92.9148H23.8823Z" fill="#0E0F0E"/>
<path d="M31.7925 92.9148V96.9049H35.7475V92.9148H31.7925Z" fill="#0E0F0E"/>
<path d="M39.7026 92.9148V96.9049H43.6574V92.9148H39.7026Z" fill="#0E0F0E"/>
<path d="M43.6572 92.9148V96.9049H47.6122V92.9148H43.6572Z" fill="#0E0F0E"/>
<path d="M55.5225 92.9148V96.9049H59.4777V92.9148H55.5225Z" fill="#0E0F0E"/>
<path d="M59.4775 92.9148V96.9049H63.4325V92.9148H59.4775Z" fill="#0E0F0E"/>
<path d="M63.4326 92.9148V96.9049H67.3874V92.9148H63.4326Z" fill="#0E0F0E"/>
<path d="M79.2524 92.9148V96.9049H83.2074V92.9148H79.2524Z" fill="#0E0F0E"/>
<path d="M99.0273 92.9148V96.9049H102.982V92.9148H99.0273Z" fill="#0E0F0E"/>
<path d="M102.982 92.9148V96.9049H106.937V92.9148H102.982Z" fill="#0E0F0E"/>
<path d="M8.0625 96.9049V100.895H12.0175V96.9049H8.0625Z" fill="#0E0F0E"/>
<path d="M15.9727 96.9049V100.895H19.9276V96.9049H15.9727Z" fill="#0E0F0E"/>
<path d="M19.9272 96.9049V100.895H23.8822V96.9049H19.9272" fill="#0E0F0E"/>
<path d="M23.8823 96.9049V100.895H27.8373V96.9049H23.8823Z" fill="#0E0F0E"/>
<path d="M31.7925 96.9049V100.895H35.7475V96.9049H31.7925Z" fill="#0E0F0E"/>
<path d="M43.6572 96.9049V100.895H47.6122V96.9049H43.6572Z" fill="#0E0F0E"/>
<path d="M51.5674 96.9049V100.895H55.5224V96.9049H51.5674Z" fill="#0E0F0E"/>
<path d="M59.4775 96.9049V100.895H63.4325V96.9049H59.4775Z" fill="#0E0F0E"/>
<path d="M67.3872 96.9049V100.895H71.3422V96.9049H67.3872Z" fill="#0E0F0E"/>
<path d="M75.2974 96.9049V100.895H79.2524V96.9049H75.2974Z" fill="#0E0F0E"/>
<path d="M87.1621 96.9049V100.895H91.1173V96.9049H87.1621Z" fill="#0E0F0E"/>
<path d="M91.1172 96.9049V100.895H95.0722V96.9049H91.1172Z" fill="#0E0F0E"/>
<path d="M95.0723 96.9049V100.895H99.0272V96.9049H95.0723Z" fill="#0E0F0E"/>
<path d="M99.0273 96.9049V100.895H102.982V96.9049H99.0273Z" fill="#0E0F0E"/>
<path d="M102.982 96.9049V100.895H106.937V96.9049H102.982Z" fill="#0E0F0E"/>
<path d="M8.0625 100.895V104.885H12.0175V100.895H8.0625Z" fill="#0E0F0E"/>
<path d="M31.7925 100.895V104.885H35.7475V100.895H31.7925Z" fill="#0E0F0E"/>
<path d="M39.7026 100.895V104.885H43.6574V100.895H39.7026Z" fill="#0E0F0E"/>
<path d="M47.6123 100.895V104.885H51.5673V100.895H47.6123Z" fill="#0E0F0E"/>
<path d="M51.5674 100.895V104.885H55.5224V100.895H51.5674Z" fill="#0E0F0E"/>
<path d="M63.4326 100.895V104.885H67.3874V100.895H63.4326Z" fill="#0E0F0E"/>
<path d="M67.3872 100.895V104.885H71.3422V100.895H67.3872Z" fill="#0E0F0E"/>
<path d="M83.2075 100.895V104.885H87.1622V100.895H83.2075Z" fill="#0E0F0E"/>
<path d="M87.1621 100.895V104.885H91.1173V100.895H87.1621Z" fill="#0E0F0E"/>
<path d="M95.0723 100.895V104.885H99.0272V100.895H95.0723Z" fill="#0E0F0E"/>
<path d="M99.0273 100.895V104.885H102.982V100.895H99.0273Z" fill="#0E0F0E"/>
<path d="M102.982 100.895V104.885H106.937V100.895H102.982Z" fill="#0E0F0E"/>
<path d="M8.0625 104.885V108.875H12.0175V104.885H8.0625" fill="#0E0F0E"/>
<path d="M12.0176 104.885V108.875H15.9726V104.885H12.0176" fill="#0E0F0E"/>
<path d="M15.9727 104.885V108.875H19.9276V104.885H15.9727" fill="#0E0F0E"/>
<path d="M19.9272 104.885V108.875H23.8822V104.885H19.9272" fill="#0E0F0E"/>
<path d="M23.8823 104.885V108.875H27.8373V104.885H23.8823" fill="#0E0F0E"/>
<path d="M27.8374 104.885V108.875H31.7924V104.885H27.8374" fill="#0E0F0E"/>
<path d="M31.7925 104.885V108.875H35.7475V104.885H31.7925" fill="#0E0F0E"/>
<path d="M39.7026 104.885V108.875H43.6574V104.885H39.7026" fill="#0E0F0E"/>
<path d="M43.6572 104.885V108.875H47.6122V104.885H43.6572" fill="#0E0F0E"/>
<path d="M47.6123 104.885V108.875H51.5673V104.885H47.6123" fill="#0E0F0E"/>
<path d="M55.5225 104.885V108.875H59.4777V104.885H55.5225" fill="#0E0F0E"/>
<path d="M71.3423 104.885V108.875H75.2975V104.885H71.3423" fill="#0E0F0E"/>
<path d="M75.2974 104.885V108.875H79.2524V104.885H75.2974" fill="#0E0F0E"/>
<path d="M91.1172 104.885V108.875H95.0722V104.885H91.1172" fill="#0E0F0E"/>
<path d="M102.982 104.885V108.875H106.937V104.885H102.982" fill="#0E0F0E"/>
</g>
<defs>
<clipPath id="clip0">
<rect x="1" y="2" width="113" height="114" fill="white"/>
</clipPath>
</defs>
</svg>
