<svg width="30" height="30" viewBox="0 0 30 30" fill="none" xmlns="http://www.w3.org/2000/svg">
<path d="M11.6016 13.1836C12.2488 13.1836 12.7734 12.6589 12.7734 12.0117C12.7734 11.3645 12.2488 10.8398 11.6016 10.8398C10.9544 10.8398 10.4297 11.3645 10.4297 12.0117C10.4297 12.6589 10.9544 13.1836 11.6016 13.1836Z" fill="white"/>
<path d="M2.34375 3.51562C2.34375 2.86945 2.86945 2.34375 3.51562 2.34375H8.26172V0H3.51562C1.57711 0 0 1.57711 0 3.51562V8.20312H2.34375V3.51562Z" fill="white"/>
<path d="M18.457 13.1836C19.1042 13.1836 19.6289 12.6589 19.6289 12.0117C19.6289 11.3645 19.1042 10.8398 18.457 10.8398C17.8098 10.8398 17.2852 11.3645 17.2852 12.0117C17.2852 12.6589 17.8098 13.1836 18.457 13.1836Z" fill="white"/>
<path d="M2.34375 26.4844V21.7969H0V26.4844C0 28.4229 1.57711 30 3.51562 30H8.26172V27.6562H3.51562C2.86945 27.6562 2.34375 27.1305 2.34375 26.4844Z" fill="white"/>
<path d="M26.4844 0H21.7383V2.34375H26.4844C27.1305 2.34375 27.6562 2.86945 27.6562 3.51562V8.20312H30V3.51562C30 1.57711 28.4229 0 26.4844 0Z" fill="white"/>
<path d="M27.6562 26.4844C27.6562 27.1305 27.1305 27.6562 26.4844 27.6562H21.7383V30H26.4844C28.4229 30 30 28.4229 30 26.4844V21.7969H27.6562V26.4844Z" fill="white"/>
<path d="M18.205 16.2412C18.173 16.3268 17.3957 18.3398 15.0784 18.3398C12.7188 18.3398 11.8127 16.2777 11.7754 16.1899L11.7789 16.1984L9.60815 17.0824C9.64683 17.1774 10.0098 18.0348 10.8377 18.8908C11.9721 20.0637 13.4385 20.6836 15.0784 20.6836C16.7314 20.6836 18.1788 20.0551 19.264 18.866C20.0567 17.9975 20.3779 17.1266 20.4119 17.0302L18.2016 16.2506L18.205 16.2412Z" fill="white"/>
<path d="M25.5469 14.9928C25.5469 9.17725 20.8155 4.44592 15 4.44592C9.18445 4.44592 4.45312 9.17719 4.45312 14.9928C4.45312 20.8084 9.18445 25.5397 15 25.5397C20.8155 25.5397 25.5469 20.8083 25.5469 14.9928ZM15 23.1959C10.4768 23.1959 6.79688 19.516 6.79688 14.9928C6.79688 10.4696 10.4768 6.78967 15 6.78967C19.5232 6.78967 23.2031 10.4696 23.2031 14.9928C23.2031 19.516 19.5232 23.1959 15 23.1959Z" fill="white"/>
</svg>
