<svg width="30" height="30" viewBox="0 0 30 30" fill="none" xmlns="http://www.w3.org/2000/svg">
<path d="M28.2307 11.3434L15.7308 0.27725C15.3135 -0.092241 14.6859 -0.0925926 14.2686 0.27725L1.76869 11.3434C1.53227 11.5525 1.39697 11.8533 1.39697 12.1691V28.897C1.39697 29.5062 1.89074 30 2.49994 30H27.4999C28.1091 30 28.6028 29.5062 28.6029 28.897V12.1691C28.6028 11.8533 28.4675 11.5526 28.2307 11.3434ZM26.3969 27.7941H3.60291V12.6658L14.9999 2.57611L26.3969 12.6658V27.7941Z" fill="white"/>
<path d="M18.7132 18.0515H11.2867C10.6775 18.0515 10.1838 18.5453 10.1838 19.1545V28.8971H12.3897V20.2574H17.6099V28.8971H19.8158H19.8162V19.1545C19.8161 18.5453 19.3224 18.0515 18.7132 18.0515Z" fill="white"/>
</svg>
