<svg width="30" height="24" viewBox="0 0 30 24" fill="none" xmlns="http://www.w3.org/2000/svg">
<path d="M26.5624 0.75H3.43758C1.54129 0.75 0 2.29129 0 4.18758V19.8124C0 21.7087 1.54129 23.25 3.43758 23.25H26.5624C28.4587 23.25 30 21.7087 30 19.8124V4.18758C30 2.29129 28.4587 0.75 26.5624 0.75V0.75ZM9.375 5.74992C11.0976 5.74992 12.4999 7.15251 12.4999 8.87508C12.4999 10.5974 11.0976 12 9.375 12C7.65244 12 6.25008 10.5974 6.25008 8.87508C6.25008 7.15251 7.65244 5.74992 9.375 5.74992ZM15 17.3126C15 17.8301 14.58 18.2501 14.0625 18.2501H4.6875C4.17 18.2501 3.75 17.8301 3.75 17.3126V16.6875C3.75 14.7912 5.29129 13.2499 7.18758 13.2499H11.5624C13.4587 13.2499 15 14.7912 15 16.6875V17.3126ZM25.3125 18.2501H18.4376C17.9201 18.2501 17.5001 17.8301 17.5001 17.3126C17.5001 16.7951 17.9201 16.3751 18.4376 16.3751H25.3125C25.83 16.3751 26.25 16.7951 26.25 17.3126C26.25 17.8301 25.83 18.2501 25.3125 18.2501ZM25.3125 13.2499H18.4376C17.9201 13.2499 17.5001 12.8299 17.5001 12.3124C17.5001 11.7949 17.9201 11.3749 18.4376 11.3749H25.3125C25.83 11.3749 26.25 11.7949 26.25 12.3124C26.25 12.8299 25.83 13.2499 25.3125 13.2499ZM25.3125 8.25H18.4376C17.9201 8.25 17.5001 7.83 17.5001 7.3125C17.5001 6.795 17.9201 6.375 18.4376 6.375H25.3125C25.83 6.375 26.25 6.795 26.25 7.3125C26.25 7.83 25.83 8.25 25.3125 8.25Z" fill="white"/>
</svg>
