<svg width="30" height="30" viewBox="0 0 30 30" fill="none" xmlns="http://www.w3.org/2000/svg">
<path d="M16.25 14.375C18.3188 14.375 19.9875 12.6938 19.9875 10.625C19.9875 8.55623 18.3188 6.875 16.25 6.875C14.1812 6.875 12.5 8.55623 12.5 10.625C12.5 12.6938 14.1813 14.375 16.25 14.375Z" fill="white"/>
<path d="M22.5 14.375C24.5687 14.375 26.2375 12.6938 26.2375 10.625C26.2375 8.55623 24.5687 6.875 22.5 6.875C22.0999 6.875 21.7187 6.93752 21.3562 7.05623C22.0624 8.06873 22.4875 9.29996 22.4875 10.625C22.4875 11.95 22.0625 13.1813 21.3562 14.1938C21.7187 14.3125 22.0999 14.375 22.5 14.375Z" fill="white"/>
<path d="M16.25 16.875C13.75 16.875 8.75 18.125 8.75 20.625V23.125H23.75V20.625C23.75 18.125 18.75 16.875 16.25 16.875Z" fill="white"/>
<path d="M24.5249 17.0751C25.5624 17.9813 26.2499 19.1501 26.2499 20.6251V23.1251H29.9999V20.6251C29.9999 18.7001 27.0311 17.5189 24.5249 17.0751Z" fill="white"/>
<path d="M10 13.125H6.25002V9.375H3.75V13.125H0V15.625H3.75V19.375H6.25002V15.625H10V13.125Z" fill="white"/>
</svg>
