<svg width="34" height="17" viewBox="0 0 34 17" fill="none" xmlns="http://www.w3.org/2000/svg">
<path d="M3.49714 5.19437C2.64192 7.01567 -1.10036 12.7697 2.61416 14.0851C4.24792 14.6636 6.33707 13.8577 7.501 12.6997C8.23898 11.9655 8.58439 11.0584 8.49055 10.0355C8.47703 9.88817 8.47205 9.29488 8.19369 9.32763C5.64006 9.62806 5.28408 15.7292 9.22129 14.0394C10.3791 13.5425 11.4489 12.6353 11.7332 11.36C11.7859 11.1239 11.6529 10.4061 11.6114 10.6445C11.3929 11.9009 12.2859 12.1156 13.1338 11.3448C13.6203 10.9025 13.7906 10.5453 14.4735 10.7587C14.8279 10.8694 15.1803 11.0444 15.5544 11.0784C16.1633 11.1337 17.9823 11.5625 17.4117 10.5988C17.396 10.5723 16.8015 9.875 17.0159 10.3552C17.2362 10.8488 17.6719 11.2409 18.1729 11.4361C21.7698 12.8379 23.0763 8.94782 23.3338 6.11541C23.4089 5.28941 23.3661 4.41556 23.5621 3.60348C23.6079 3.41385 23.6382 5.06225 23.6382 5.14869C23.6382 6.8157 23.6382 8.48271 23.6382 10.1497C23.6382 11.6348 23.4349 13.3513 23.8666 14.8006C24.1071 15.6078 24.4851 15.8264 25.1149 15.0746C27.1439 12.653 28.0082 9.40263 28.9361 6.45794C29.4582 4.80131 29.8659 2.56568 30.9913 1.14483C31.6685 0.289965 32.5673 3.48921 32.6203 3.71005C32.967 5.15479 32.7126 6.63993 33.0161 8.05644C33.0656 8.28733 30.3334 8.20868 29.9409 8.20868" stroke="black" stroke-linecap="round" stroke-linejoin="round"/>
</svg>
