<svg width="108" height="108" viewBox="0 0 108 108" fill="none" xmlns="http://www.w3.org/2000/svg">
<path d="M54 108C83.8234 108 108 83.8234 108 54C108 24.1766 83.8234 0 54 0C24.1766 0 0 24.1766 0 54C0 83.8234 24.1766 108 54 108Z" fill="#DEFCED" fill-opacity="0.45"/>
<path d="M54 105C82.1665 105 105 82.1665 105 54C105 25.8335 82.1665 3 54 3C25.8335 3 3 25.8335 3 54C3 82.1665 25.8335 105 54 105Z" stroke="#36CB81" stroke-width="6" stroke-linecap="round" stroke-linejoin="round" stroke-dasharray="119 35"/>
<path d="M25.72 51.5508L45.9438 72.567L82.6128 34.4669" stroke="#36CB81" stroke-width="9" stroke-linecap="round" stroke-linejoin="round"/>
</svg>
