<svg width="30" height="30" viewBox="0 0 30 30" fill="none" xmlns="http://www.w3.org/2000/svg">
<path d="M15 0C6.72867 0 0 6.72867 0 15C0 23.2713 6.72867 30 15 30C23.2713 30 30 23.2713 30 15C30 6.72867 23.2713 0 15 0ZM22.6025 11.8213L14.4775 19.9461C14.2337 20.1899 13.9137 20.3126 13.5938 20.3126C13.2738 20.3126 12.9538 20.1899 12.71 19.9461L8.64761 15.8837C8.15872 15.3951 8.15872 14.6049 8.64761 14.1163C9.13628 13.6274 9.92615 13.6274 10.415 14.1163L13.5938 17.295L20.8351 10.0539C21.3238 9.56497 22.1136 9.56497 22.6025 10.0539C23.0912 10.5425 23.0912 11.3324 22.6025 11.8213V11.8213Z" fill="#367242"/>
</svg>
